<mxfile host="app.diagrams.net" agent="Mozilla/5.0 (Windows NT 10.0; Win64; x64) AppleWebKit/537.36 (KHTML, like Gecko) Chrome/130.0.0.0 Safari/537.36 Edg/130.0.0.0" version="24.8.3">
  <diagram id="C5RBs43oDa-KdzZeNtuy" name="Page-1">
    <mxGraphModel dx="2691" dy="1957" grid="1" gridSize="10" guides="1" tooltips="1" connect="1" arrows="1" fold="1" page="1" pageScale="1" pageWidth="827" pageHeight="1169" math="0" shadow="0">
      <root>
        <mxCell id="WIyWlLk6GJQsqaUBKTNV-0" />
        <mxCell id="WIyWlLk6GJQsqaUBKTNV-1" parent="WIyWlLk6GJQsqaUBKTNV-0" />
        <mxCell id="WIyWlLk6GJQsqaUBKTNV-2" value="" style="rounded=0;html=1;jettySize=auto;orthogonalLoop=1;fontSize=11;endArrow=block;endFill=0;endSize=8;strokeWidth=1;shadow=0;labelBackgroundColor=none;edgeStyle=orthogonalEdgeStyle;" parent="WIyWlLk6GJQsqaUBKTNV-1" source="WIyWlLk6GJQsqaUBKTNV-3" target="WIyWlLk6GJQsqaUBKTNV-6" edge="1">
          <mxGeometry relative="1" as="geometry" />
        </mxCell>
        <mxCell id="WIyWlLk6GJQsqaUBKTNV-3" value="Lamp doesn&#39;t work" style="rounded=1;whiteSpace=wrap;html=1;fontSize=12;glass=0;strokeWidth=1;shadow=0;" parent="WIyWlLk6GJQsqaUBKTNV-1" vertex="1">
          <mxGeometry x="170" y="-380" width="120" height="40" as="geometry" />
        </mxCell>
        <mxCell id="WIyWlLk6GJQsqaUBKTNV-4" value="Yes" style="rounded=0;html=1;jettySize=auto;orthogonalLoop=1;fontSize=11;endArrow=block;endFill=0;endSize=8;strokeWidth=1;shadow=0;labelBackgroundColor=none;edgeStyle=orthogonalEdgeStyle;" parent="WIyWlLk6GJQsqaUBKTNV-1" source="WIyWlLk6GJQsqaUBKTNV-6" target="WIyWlLk6GJQsqaUBKTNV-10" edge="1">
          <mxGeometry y="20" relative="1" as="geometry">
            <mxPoint as="offset" />
          </mxGeometry>
        </mxCell>
        <mxCell id="WIyWlLk6GJQsqaUBKTNV-5" value="No" style="edgeStyle=orthogonalEdgeStyle;rounded=0;html=1;jettySize=auto;orthogonalLoop=1;fontSize=11;endArrow=block;endFill=0;endSize=8;strokeWidth=1;shadow=0;labelBackgroundColor=none;" parent="WIyWlLk6GJQsqaUBKTNV-1" source="WIyWlLk6GJQsqaUBKTNV-6" target="WIyWlLk6GJQsqaUBKTNV-7" edge="1">
          <mxGeometry y="10" relative="1" as="geometry">
            <mxPoint as="offset" />
          </mxGeometry>
        </mxCell>
        <mxCell id="WIyWlLk6GJQsqaUBKTNV-6" value="Lamp&lt;br&gt;plugged in?" style="rhombus;whiteSpace=wrap;html=1;shadow=0;fontFamily=Helvetica;fontSize=12;align=center;strokeWidth=1;spacing=6;spacingTop=-4;" parent="WIyWlLk6GJQsqaUBKTNV-1" vertex="1">
          <mxGeometry x="180" y="-290" width="100" height="80" as="geometry" />
        </mxCell>
        <mxCell id="WIyWlLk6GJQsqaUBKTNV-7" value="Plug in lamp" style="rounded=1;whiteSpace=wrap;html=1;fontSize=12;glass=0;strokeWidth=1;shadow=0;" parent="WIyWlLk6GJQsqaUBKTNV-1" vertex="1">
          <mxGeometry x="330" y="-270" width="120" height="40" as="geometry" />
        </mxCell>
        <mxCell id="WIyWlLk6GJQsqaUBKTNV-8" value="No" style="rounded=0;html=1;jettySize=auto;orthogonalLoop=1;fontSize=11;endArrow=block;endFill=0;endSize=8;strokeWidth=1;shadow=0;labelBackgroundColor=none;edgeStyle=orthogonalEdgeStyle;" parent="WIyWlLk6GJQsqaUBKTNV-1" source="WIyWlLk6GJQsqaUBKTNV-10" target="WIyWlLk6GJQsqaUBKTNV-11" edge="1">
          <mxGeometry x="0.3333" y="20" relative="1" as="geometry">
            <mxPoint as="offset" />
          </mxGeometry>
        </mxCell>
        <mxCell id="WIyWlLk6GJQsqaUBKTNV-9" value="Yes" style="edgeStyle=orthogonalEdgeStyle;rounded=0;html=1;jettySize=auto;orthogonalLoop=1;fontSize=11;endArrow=block;endFill=0;endSize=8;strokeWidth=1;shadow=0;labelBackgroundColor=none;" parent="WIyWlLk6GJQsqaUBKTNV-1" source="WIyWlLk6GJQsqaUBKTNV-10" target="WIyWlLk6GJQsqaUBKTNV-12" edge="1">
          <mxGeometry y="10" relative="1" as="geometry">
            <mxPoint as="offset" />
          </mxGeometry>
        </mxCell>
        <mxCell id="WIyWlLk6GJQsqaUBKTNV-10" value="Bulb&lt;br&gt;burned out?" style="rhombus;whiteSpace=wrap;html=1;shadow=0;fontFamily=Helvetica;fontSize=12;align=center;strokeWidth=1;spacing=6;spacingTop=-4;" parent="WIyWlLk6GJQsqaUBKTNV-1" vertex="1">
          <mxGeometry x="180" y="-170" width="100" height="80" as="geometry" />
        </mxCell>
        <mxCell id="WIyWlLk6GJQsqaUBKTNV-11" value="Repair Lamp" style="rounded=1;whiteSpace=wrap;html=1;fontSize=12;glass=0;strokeWidth=1;shadow=0;" parent="WIyWlLk6GJQsqaUBKTNV-1" vertex="1">
          <mxGeometry x="170" y="-30" width="120" height="40" as="geometry" />
        </mxCell>
        <mxCell id="WIyWlLk6GJQsqaUBKTNV-12" value="Replace Bulb" style="rounded=1;whiteSpace=wrap;html=1;fontSize=12;glass=0;strokeWidth=1;shadow=0;" parent="WIyWlLk6GJQsqaUBKTNV-1" vertex="1">
          <mxGeometry x="330" y="-150" width="120" height="40" as="geometry" />
        </mxCell>
        <mxCell id="8z2gO0Gth91dPhjMXz8p-2" style="edgeStyle=orthogonalEdgeStyle;rounded=0;orthogonalLoop=1;jettySize=auto;html=1;entryX=0.5;entryY=0;entryDx=0;entryDy=0;" edge="1" parent="WIyWlLk6GJQsqaUBKTNV-1" source="8z2gO0Gth91dPhjMXz8p-0" target="8z2gO0Gth91dPhjMXz8p-1">
          <mxGeometry relative="1" as="geometry" />
        </mxCell>
        <mxCell id="8z2gO0Gth91dPhjMXz8p-0" value="&lt;b&gt;AAuraCharacter::InitAbilityActorInfo()&lt;/b&gt;&lt;div&gt;&lt;div&gt;&lt;br&gt;&lt;/div&gt;&lt;div&gt;1. Get AAuraPlayerState, AuraPlayerState;&lt;/div&gt;&lt;div&gt;2. Check assert that;&lt;/div&gt;&lt;div&gt;3. Tell ASC who&#39;s the owner and avatar actors by accessing the ASC from AuraPlayerState and calling the&lt;/div&gt;&lt;div&gt;ASC&#39;s InitAbilityActorInfo, passing AuraPlayerState and this.&lt;/div&gt;&lt;div&gt;4. Cast the ASC from AuraPlayerState to AuraAbilitySystemComponent to call AbilityActorInfoSet()&lt;/div&gt;&lt;div&gt;5. Set this ASC member variable using AuraPlayerState;&lt;/div&gt;&lt;div&gt;6. Set this AS member variable using AuraPlayerState;&lt;/div&gt;&lt;div&gt;7. Get AuraPlayerController by casting AController;&lt;/div&gt;&lt;div&gt;8. Get AuraHUD by casting AHUD;&lt;/div&gt;&lt;div&gt;9. Call InitOverlay(AuraPlayerController, AuraPlayerState, AbilitySystemComponent, AttributeSet) using AuraHUD.&lt;/div&gt;&lt;/div&gt;" style="rounded=1;whiteSpace=wrap;html=1;absoluteArcSize=1;arcSize=14;strokeWidth=2;fillColor=#d5e8d4;strokeColor=#82b366;align=left;" vertex="1" parent="WIyWlLk6GJQsqaUBKTNV-1">
          <mxGeometry x="25" y="500" width="580" height="220" as="geometry" />
        </mxCell>
        <mxCell id="8z2gO0Gth91dPhjMXz8p-1" value="&lt;b&gt;UAuraAbilitySystemComponent::AbilityActorInfoSet()&lt;/b&gt;&lt;div&gt;&lt;div&gt;&lt;br&gt;&lt;/div&gt;&lt;div&gt;1. Binds EffectApplied() to a delegate (OnGameplayEffectAppliedDelegateToSelf) of UASC&amp;nbsp;&lt;/div&gt;&lt;div&gt;triggered in response to any effect applied to this ASC.&lt;/div&gt;&lt;/div&gt;" style="rounded=1;whiteSpace=wrap;html=1;absoluteArcSize=1;arcSize=14;strokeWidth=2;fillColor=#d5e8d4;strokeColor=#82b366;align=left;" vertex="1" parent="WIyWlLk6GJQsqaUBKTNV-1">
          <mxGeometry x="-340" y="740" width="330" height="100" as="geometry" />
        </mxCell>
        <mxCell id="8z2gO0Gth91dPhjMXz8p-8" value="4" style="text;html=1;align=center;verticalAlign=middle;whiteSpace=wrap;rounded=0;" vertex="1" parent="WIyWlLk6GJQsqaUBKTNV-1">
          <mxGeometry x="-35" y="580" width="60" height="30" as="geometry" />
        </mxCell>
        <mxCell id="8z2gO0Gth91dPhjMXz8p-10" style="edgeStyle=orthogonalEdgeStyle;rounded=0;orthogonalLoop=1;jettySize=auto;html=1;entryX=0.5;entryY=0;entryDx=0;entryDy=0;" edge="1" parent="WIyWlLk6GJQsqaUBKTNV-1" source="8z2gO0Gth91dPhjMXz8p-9" target="8z2gO0Gth91dPhjMXz8p-1">
          <mxGeometry relative="1" as="geometry">
            <Array as="points">
              <mxPoint x="-175" y="550" />
            </Array>
          </mxGeometry>
        </mxCell>
        <mxCell id="8z2gO0Gth91dPhjMXz8p-9" value="&lt;b&gt;AAuraEnemy::InitAbilityActorInfo()&lt;/b&gt;&lt;br&gt;&lt;div&gt;&lt;div&gt;&lt;br&gt;&lt;/div&gt;&lt;div&gt;&lt;div&gt;1. From the AbilitySystemComponent member, call InitAbilityActorInfo passing this and this;&lt;/div&gt;&lt;div&gt;2. Let AuraAbilitySystemComponent know the ASC has been set by casting the ASC to AuraASC and&amp;nbsp;&lt;/div&gt;&lt;div&gt;calling AbilityActorInfoSet().&lt;/div&gt;&lt;/div&gt;&lt;/div&gt;" style="rounded=1;whiteSpace=wrap;html=1;absoluteArcSize=1;arcSize=14;strokeWidth=2;fillColor=#d5e8d4;strokeColor=#82b366;align=left;" vertex="1" parent="WIyWlLk6GJQsqaUBKTNV-1">
          <mxGeometry x="-880" y="500" width="500" height="120" as="geometry" />
        </mxCell>
        <mxCell id="8z2gO0Gth91dPhjMXz8p-11" value="1" style="text;html=1;align=center;verticalAlign=middle;whiteSpace=wrap;rounded=0;" vertex="1" parent="WIyWlLk6GJQsqaUBKTNV-1">
          <mxGeometry x="-380" y="520" width="60" height="30" as="geometry" />
        </mxCell>
        <mxCell id="8z2gO0Gth91dPhjMXz8p-17" style="edgeStyle=orthogonalEdgeStyle;rounded=0;orthogonalLoop=1;jettySize=auto;html=1;entryX=0.5;entryY=0;entryDx=0;entryDy=0;" edge="1" parent="WIyWlLk6GJQsqaUBKTNV-1" source="8z2gO0Gth91dPhjMXz8p-12" target="8z2gO0Gth91dPhjMXz8p-16">
          <mxGeometry relative="1" as="geometry">
            <Array as="points">
              <mxPoint x="975" y="880" />
              <mxPoint x="975" y="880" />
            </Array>
          </mxGeometry>
        </mxCell>
        <mxCell id="8z2gO0Gth91dPhjMXz8p-29" style="edgeStyle=orthogonalEdgeStyle;rounded=0;orthogonalLoop=1;jettySize=auto;html=1;entryX=0;entryY=0.5;entryDx=0;entryDy=0;" edge="1" parent="WIyWlLk6GJQsqaUBKTNV-1" source="8z2gO0Gth91dPhjMXz8p-12" target="8z2gO0Gth91dPhjMXz8p-28">
          <mxGeometry relative="1" as="geometry">
            <Array as="points">
              <mxPoint x="1420" y="830" />
              <mxPoint x="1420" y="1315" />
            </Array>
          </mxGeometry>
        </mxCell>
        <mxCell id="8z2gO0Gth91dPhjMXz8p-12" value="&lt;b&gt;AAuraHUD::InitOverlay()&lt;/b&gt;&lt;br&gt;&lt;div&gt;&lt;div&gt;&lt;br&gt;&lt;/div&gt;&lt;div&gt;&lt;div&gt;1. Check using checkf:&lt;/div&gt;&lt;div&gt;&amp;nbsp; &amp;nbsp; 1.1 OverlayWidgetClass;&lt;/div&gt;&lt;div&gt;&amp;nbsp; &amp;nbsp; 1.2 OverlayWidgetControllerClass.&lt;/div&gt;&lt;div&gt;2. Create a widget passing the OverlayWidgetClass in CreateWidget();&lt;/div&gt;&lt;div&gt;3. Cast and assign that widget to OverlayWidget;&lt;/div&gt;&lt;div&gt;4. Create a FWidgetControllerParams, WidgetControllerParams using the args passed to this function: PC, PS, ASC, AS;&lt;/div&gt;&lt;div&gt;5. Create or return an OverlayWidgetController calling GetOverlayWidgetController, and store in a UOverlayWidgetController pointer, WidgetController;&lt;/div&gt;&lt;div&gt;6. Tie the OverlayWidget and OverlayWidgetController together;&lt;/div&gt;&lt;div&gt;7. Broadcast initial values by calling BroadcastInitialValues() from WidgetController;&lt;/div&gt;&lt;div&gt;8. Finally add the widget to the viewport.&lt;/div&gt;&lt;/div&gt;&lt;/div&gt;" style="rounded=1;whiteSpace=wrap;html=1;absoluteArcSize=1;arcSize=14;strokeWidth=2;fillColor=#d5e8d4;strokeColor=#82b366;align=left;" vertex="1" parent="WIyWlLk6GJQsqaUBKTNV-1">
          <mxGeometry x="720" y="620" width="580" height="250" as="geometry" />
        </mxCell>
        <mxCell id="8z2gO0Gth91dPhjMXz8p-13" style="edgeStyle=orthogonalEdgeStyle;rounded=0;orthogonalLoop=1;jettySize=auto;html=1;" edge="1" parent="WIyWlLk6GJQsqaUBKTNV-1" source="8z2gO0Gth91dPhjMXz8p-0">
          <mxGeometry relative="1" as="geometry">
            <mxPoint x="720" y="690" as="targetPoint" />
            <Array as="points">
              <mxPoint x="690" y="690" />
              <mxPoint x="690" y="690" />
            </Array>
          </mxGeometry>
        </mxCell>
        <mxCell id="8z2gO0Gth91dPhjMXz8p-14" value="9" style="text;html=1;align=center;verticalAlign=middle;whiteSpace=wrap;rounded=0;" vertex="1" parent="WIyWlLk6GJQsqaUBKTNV-1">
          <mxGeometry x="605" y="660" width="60" height="30" as="geometry" />
        </mxCell>
        <mxCell id="8z2gO0Gth91dPhjMXz8p-20" style="edgeStyle=orthogonalEdgeStyle;rounded=0;orthogonalLoop=1;jettySize=auto;html=1;entryX=0;entryY=0.5;entryDx=0;entryDy=0;" edge="1" parent="WIyWlLk6GJQsqaUBKTNV-1" source="8z2gO0Gth91dPhjMXz8p-16" target="8z2gO0Gth91dPhjMXz8p-19">
          <mxGeometry relative="1" as="geometry">
            <Array as="points">
              <mxPoint x="1330" y="1020" />
              <mxPoint x="1330" y="910" />
            </Array>
          </mxGeometry>
        </mxCell>
        <mxCell id="8z2gO0Gth91dPhjMXz8p-24" style="edgeStyle=orthogonalEdgeStyle;rounded=0;orthogonalLoop=1;jettySize=auto;html=1;entryX=0;entryY=0.5;entryDx=0;entryDy=0;" edge="1" parent="WIyWlLk6GJQsqaUBKTNV-1" source="8z2gO0Gth91dPhjMXz8p-16" target="8z2gO0Gth91dPhjMXz8p-22">
          <mxGeometry relative="1" as="geometry">
            <mxPoint x="1460" y="1070" as="targetPoint" />
            <Array as="points">
              <mxPoint x="1330" y="1040" />
              <mxPoint x="1330" y="1115" />
            </Array>
          </mxGeometry>
        </mxCell>
        <mxCell id="8z2gO0Gth91dPhjMXz8p-16" value="&lt;b&gt;AAuraHUD::GetOverlayWidgetController()&lt;/b&gt;&lt;br&gt;&lt;div&gt;&lt;div&gt;&lt;br&gt;&lt;/div&gt;&lt;div&gt;&lt;div&gt;1. Check if OverlayWidgetController is null;&lt;/div&gt;&lt;div&gt;2. If it is:&lt;/div&gt;&lt;div&gt;&amp;nbsp; &amp;nbsp; 2.1 create OverlayWidgetController;&lt;/div&gt;&lt;div&gt;&amp;nbsp; &amp;nbsp; 2.2 with OverlayWidgetController call SetWidgetControllerParams() passing WCParams;&lt;/div&gt;&lt;div&gt;&amp;nbsp; &amp;nbsp; 2.3 with OverlayWidgetController call BindCallbackToDependencies().&lt;/div&gt;&lt;div&gt;3. Otherwise return OverlayWidgetController.&lt;/div&gt;&lt;/div&gt;&lt;/div&gt;" style="rounded=1;whiteSpace=wrap;html=1;absoluteArcSize=1;arcSize=14;strokeWidth=2;fillColor=#d5e8d4;strokeColor=#82b366;align=left;" vertex="1" parent="WIyWlLk6GJQsqaUBKTNV-1">
          <mxGeometry x="720" y="919" width="510" height="171" as="geometry" />
        </mxCell>
        <mxCell id="8z2gO0Gth91dPhjMXz8p-18" value="5" style="text;html=1;align=center;verticalAlign=middle;whiteSpace=wrap;rounded=0;" vertex="1" parent="WIyWlLk6GJQsqaUBKTNV-1">
          <mxGeometry x="970" y="880" width="60" height="30" as="geometry" />
        </mxCell>
        <mxCell id="8z2gO0Gth91dPhjMXz8p-19" value="&lt;b&gt;UAuraWidgetController::SetWidgetControllerParams()&lt;/b&gt;&lt;br&gt;&lt;div&gt;&lt;div&gt;&lt;br&gt;&lt;/div&gt;&lt;div&gt;&lt;div&gt;1. Set PlayerController to WCParams.fPlayerController;&lt;/div&gt;&lt;div&gt;2. Set PlayerState to WCParams.fPlayerState;&lt;/div&gt;&lt;div&gt;3. Set AbilitySystemComponent to WCParams.fAbilitySystemComponent;&lt;/div&gt;&lt;div&gt;4. Set AttributeSet to WCParams.fAttributeSet;&lt;/div&gt;&lt;/div&gt;&lt;/div&gt;" style="rounded=1;whiteSpace=wrap;html=1;absoluteArcSize=1;arcSize=14;strokeWidth=2;fillColor=#d5e8d4;strokeColor=#82b366;align=left;" vertex="1" parent="WIyWlLk6GJQsqaUBKTNV-1">
          <mxGeometry x="1590" y="840" width="410" height="142" as="geometry" />
        </mxCell>
        <mxCell id="8z2gO0Gth91dPhjMXz8p-21" value="2.2" style="text;html=1;align=center;verticalAlign=middle;whiteSpace=wrap;rounded=0;" vertex="1" parent="WIyWlLk6GJQsqaUBKTNV-1">
          <mxGeometry x="1260" y="989.5" width="60" height="30" as="geometry" />
        </mxCell>
        <mxCell id="8z2gO0Gth91dPhjMXz8p-22" value="&lt;b&gt;UOverlayWidgetController::BindCallbacksToDependencies()&lt;/b&gt;&lt;br&gt;&lt;div&gt;&lt;div&gt;&lt;br&gt;&lt;/div&gt;&lt;div&gt;&lt;div&gt;1. Cast AttributeSet into AuraAS to get access to attributes;&lt;/div&gt;&lt;div&gt;2. Bind a callback (changed to a lambda later) to GetGameplayAttributeValueChangeDelegate for each attribute;&lt;/div&gt;&lt;div&gt;&amp;nbsp; &amp;nbsp; 2.1 each callback/lambda uses our delegates, eg OnHealthChanged, to broadcast the new value.&lt;/div&gt;&lt;div&gt;3. Bind a lambda to EffectAssetTags delegate.&lt;/div&gt;&lt;div&gt;&amp;nbsp; &amp;nbsp; 3.1 this lambda receives a const FGameplayTagContainer&amp;amp; AssetTags;&lt;/div&gt;&lt;div&gt;&amp;nbsp; &amp;nbsp; 3.2 it loops through this container and check each Tag;&lt;/div&gt;&lt;div&gt;&amp;nbsp; &amp;nbsp; 3.3 check if the Tag belongs to a Message parented GT;&lt;/div&gt;&lt;div&gt;&amp;nbsp; &amp;nbsp; 3.4 if it does, call GetDataTableRowByTag() to look up in a DataTable a row that has that Tag;&lt;/div&gt;&lt;div&gt;&amp;nbsp; &amp;nbsp; 3.5 broadcast that data table row using our delegate MessageWidgetRowDelegate.&lt;/div&gt;&lt;/div&gt;&lt;/div&gt;" style="rounded=1;whiteSpace=wrap;html=1;absoluteArcSize=1;arcSize=14;strokeWidth=2;fillColor=#d5e8d4;strokeColor=#82b366;align=left;" vertex="1" parent="WIyWlLk6GJQsqaUBKTNV-1">
          <mxGeometry x="1540" y="1010" width="610" height="210" as="geometry" />
        </mxCell>
        <mxCell id="8z2gO0Gth91dPhjMXz8p-25" value="2.3" style="text;html=1;align=center;verticalAlign=middle;whiteSpace=wrap;rounded=0;" vertex="1" parent="WIyWlLk6GJQsqaUBKTNV-1">
          <mxGeometry x="1260" y="1040" width="60" height="30" as="geometry" />
        </mxCell>
        <mxCell id="8z2gO0Gth91dPhjMXz8p-28" value="&lt;b&gt;UOverlayWidgetController::BroadcastInitialValues()&lt;/b&gt;&lt;br&gt;&lt;div&gt;&lt;div&gt;&lt;br&gt;&lt;/div&gt;&lt;div&gt;&lt;div&gt;1. Cast checked the AttributeSet member variable into UAuraAttributeSet and store in a UAuraAttributeSet pointer, AuraAttributeSet;&lt;/div&gt;&lt;div&gt;2. Use that pointer to call Getters of Health and Mana attributes to return their values;&lt;/div&gt;&lt;div&gt;3. Broadcast those values using respective delegates created in this class.&lt;/div&gt;&lt;/div&gt;&lt;/div&gt;" style="rounded=1;whiteSpace=wrap;html=1;absoluteArcSize=1;arcSize=14;strokeWidth=2;fillColor=#d5e8d4;strokeColor=#82b366;align=left;" vertex="1" parent="WIyWlLk6GJQsqaUBKTNV-1">
          <mxGeometry x="1540" y="1240" width="480" height="150" as="geometry" />
        </mxCell>
        <mxCell id="8z2gO0Gth91dPhjMXz8p-30" value="7" style="text;html=1;align=center;verticalAlign=middle;whiteSpace=wrap;rounded=0;" vertex="1" parent="WIyWlLk6GJQsqaUBKTNV-1">
          <mxGeometry x="1300" y="800" width="60" height="30" as="geometry" />
        </mxCell>
      </root>
    </mxGraphModel>
  </diagram>
</mxfile>
